<svg width="300" height="300" viewBox="0 0 300 300" fill="none" xmlns="http://www.w3.org/2000/svg">
<rect width="300" height="300" fill="white"/>
<path d="M124.392 88.6364C123.998 87.0303 123.377 85.6212 122.528 84.4091C121.68 83.1667 120.619 82.1212 119.347 81.2727C118.104 80.3939 116.65 79.7424 114.983 79.3182C113.347 78.8636 111.544 78.6364 109.574 78.6364C105.331 78.6364 101.71 79.6515 98.7102 81.6818C95.7405 83.7121 93.4678 86.6364 91.892 90.4545C90.3466 94.2727 89.5739 98.8788 89.5739 104.273C89.5739 109.727 90.3163 114.394 91.8011 118.273C93.286 122.152 95.4981 125.121 98.4375 127.182C101.377 129.242 105.028 130.273 109.392 130.273C113.241 130.273 116.438 129.712 118.983 128.591C121.559 127.47 123.483 125.879 124.756 123.818C126.028 121.758 126.665 119.333 126.665 116.545L131.028 117H109.756V99H151.028V111.909C151.028 120.394 149.225 127.652 145.619 133.682C142.044 139.682 137.104 144.288 130.801 147.5C124.528 150.682 117.331 152.273 109.21 152.273C100.15 152.273 92.1951 150.348 85.3466 146.5C78.4981 142.652 73.1496 137.167 69.3011 130.045C65.483 122.924 63.5739 114.455 63.5739 104.636C63.5739 96.9394 64.7405 90.1212 67.0739 84.1818C69.4375 78.2424 72.7102 73.2273 76.892 69.1364C81.0739 65.0151 85.9072 61.9091 91.392 59.8182C96.8769 57.697 102.756 56.6364 109.028 56.6364C114.544 56.6364 119.665 57.4242 124.392 59C129.15 60.5455 133.347 62.7576 136.983 65.6364C140.65 68.4848 143.604 71.8636 145.847 75.7727C148.089 79.6818 149.453 83.9697 149.938 88.6364H124.392ZM212.994 87C212.752 83.9697 211.616 81.6061 209.585 79.9091C207.585 78.2121 204.54 77.3636 200.449 77.3636C197.843 77.3636 195.706 77.6818 194.04 78.3182C192.403 78.9242 191.191 79.7576 190.403 80.8182C189.616 81.8788 189.206 83.0909 189.176 84.4545C189.116 85.5758 189.313 86.5909 189.767 87.5C190.252 88.3788 191.009 89.1818 192.04 89.9091C193.07 90.6061 194.388 91.2424 195.994 91.8182C197.6 92.3939 199.509 92.9091 201.722 93.3636L209.358 95C214.509 96.0909 218.919 97.5303 222.585 99.3182C226.252 101.106 229.252 103.212 231.585 105.636C233.919 108.03 235.631 110.727 236.722 113.727C237.843 116.727 238.419 120 238.449 123.545C238.419 129.667 236.888 134.848 233.858 139.091C230.828 143.333 226.494 146.561 220.858 148.773C215.252 150.985 208.509 152.091 200.631 152.091C192.54 152.091 185.479 150.894 179.449 148.5C173.449 146.106 168.782 142.424 165.449 137.455C162.146 132.455 160.479 126.061 160.449 118.273H184.449C184.6 121.121 185.313 123.515 186.585 125.455C187.858 127.394 189.646 128.864 191.949 129.864C194.282 130.864 197.055 131.364 200.267 131.364C202.964 131.364 205.222 131.03 207.04 130.364C208.858 129.697 210.237 128.773 211.176 127.591C212.116 126.409 212.6 125.061 212.631 123.545C212.6 122.121 212.131 120.879 211.222 119.818C210.343 118.727 208.888 117.758 206.858 116.909C204.828 116.03 202.085 115.212 198.631 114.455L189.358 112.455C181.116 110.667 174.616 107.682 169.858 103.5C165.131 99.2879 162.782 93.5455 162.812 86.2727C162.782 80.3636 164.358 75.197 167.54 70.7727C170.752 66.3182 175.191 62.8485 180.858 60.3636C186.555 57.8788 193.085 56.6364 200.449 56.6364C207.964 56.6364 214.464 57.8939 219.949 60.4091C225.434 62.9242 229.661 66.4697 232.631 71.0455C235.631 75.5909 237.146 80.9091 237.176 87H212.994Z" fill="#222222"/>
<path d="M65.2116 241.989C61.8707 241.989 58.8935 241.409 56.2798 240.25C53.6662 239.068 51.598 237.33 50.0753 235.034C48.5753 232.716 47.8253 229.83 47.8253 226.375C47.8253 223.466 48.3594 221.023 49.4276 219.045C50.4957 217.068 51.9503 215.477 53.7912 214.273C55.6321 213.068 57.723 212.159 60.0639 211.545C62.4276 210.932 64.9048 210.5 67.4957 210.25C70.5412 209.932 72.9957 209.636 74.8594 209.364C76.723 209.068 78.0753 208.636 78.9162 208.068C79.7571 207.5 80.1776 206.659 80.1776 205.545V205.341C80.1776 203.182 79.4957 201.511 78.1321 200.33C76.7912 199.148 74.8821 198.557 72.4048 198.557C69.7912 198.557 67.7116 199.136 66.1662 200.295C64.6207 201.432 63.598 202.864 63.098 204.591L49.6662 203.5C50.348 200.318 51.6889 197.568 53.6889 195.25C55.6889 192.909 58.2685 191.114 61.4276 189.864C64.6094 188.591 68.2912 187.955 72.473 187.955C75.3821 187.955 78.1662 188.295 80.8253 188.977C83.5071 189.659 85.8821 190.716 87.9503 192.148C90.0412 193.58 91.6889 195.42 92.8935 197.67C94.098 199.898 94.7003 202.568 94.7003 205.682V241H80.9276V233.739H80.5185C79.6776 235.375 78.5526 236.818 77.1435 238.068C75.7344 239.295 74.0412 240.261 72.0639 240.966C70.0866 241.648 67.8026 241.989 65.2116 241.989ZM69.3707 231.966C71.5071 231.966 73.3935 231.545 75.0298 230.705C76.6662 229.841 77.9503 228.682 78.8821 227.227C79.8139 225.773 80.2798 224.125 80.2798 222.284V216.727C79.8253 217.023 79.2003 217.295 78.4048 217.545C77.6321 217.773 76.7571 217.989 75.7798 218.193C74.8026 218.375 73.8253 218.545 72.848 218.705C71.8707 218.841 70.9844 218.966 70.1889 219.08C68.4844 219.33 66.9957 219.727 65.723 220.273C64.4503 220.818 63.4616 221.557 62.7571 222.489C62.0526 223.398 61.7003 224.534 61.7003 225.898C61.7003 227.875 62.4162 229.386 63.848 230.432C65.3026 231.455 67.1435 231.966 69.3707 231.966ZM139.547 218.705V188.636H154.07V241H140.126V231.489H139.581C138.399 234.557 136.433 237.023 133.683 238.886C130.956 240.75 127.626 241.682 123.695 241.682C120.195 241.682 117.115 240.886 114.456 239.295C111.797 237.705 109.717 235.443 108.217 232.511C106.74 229.58 105.99 226.068 105.967 221.977V188.636H120.49V219.386C120.513 222.477 121.342 224.92 122.979 226.716C124.615 228.511 126.808 229.409 129.558 229.409C131.308 229.409 132.945 229.011 134.467 228.216C135.99 227.398 137.217 226.193 138.149 224.602C139.104 223.011 139.57 221.045 139.547 218.705ZM193.538 188.636V199.545H162.004V188.636H193.538ZM169.163 176.091H183.686V224.909C183.686 226.25 183.891 227.295 184.3 228.045C184.709 228.773 185.277 229.284 186.004 229.58C186.754 229.875 187.618 230.023 188.595 230.023C189.277 230.023 189.959 229.966 190.641 229.852C191.322 229.716 191.845 229.614 192.209 229.545L194.493 240.352C193.766 240.58 192.743 240.841 191.425 241.136C190.107 241.455 188.504 241.648 186.618 241.716C183.118 241.852 180.05 241.386 177.413 240.318C174.8 239.25 172.766 237.591 171.311 235.341C169.857 233.091 169.141 230.25 169.163 226.818V176.091ZM226.095 242.023C220.8 242.023 216.22 240.898 212.357 238.648C208.516 236.375 205.55 233.216 203.459 229.17C201.368 225.102 200.322 220.386 200.322 215.023C200.322 209.614 201.368 204.886 203.459 200.841C205.55 196.773 208.516 193.614 212.357 191.364C216.22 189.091 220.8 187.955 226.095 187.955C231.391 187.955 235.959 189.091 239.8 191.364C243.663 193.614 246.641 196.773 248.732 200.841C250.822 204.886 251.868 209.614 251.868 215.023C251.868 220.386 250.822 225.102 248.732 229.17C246.641 233.216 243.663 236.375 239.8 238.648C235.959 240.898 231.391 242.023 226.095 242.023ZM226.163 230.773C228.572 230.773 230.584 230.091 232.197 228.727C233.811 227.341 235.027 225.455 235.845 223.068C236.686 220.682 237.107 217.966 237.107 214.92C237.107 211.875 236.686 209.159 235.845 206.773C235.027 204.386 233.811 202.5 232.197 201.114C230.584 199.727 228.572 199.034 226.163 199.034C223.732 199.034 221.686 199.727 220.027 201.114C218.391 202.5 217.152 204.386 216.311 206.773C215.493 209.159 215.084 211.875 215.084 214.92C215.084 217.966 215.493 220.682 216.311 223.068C217.152 225.455 218.391 227.341 220.027 228.727C221.686 230.091 223.732 230.773 226.163 230.773Z" fill="#E82A2A"/>
</svg>